<svg version="1.0" xmlns="http://www.w3.org/2000/svg"
 width="1024" height="1024" viewBox="0 0 1024.000000 1024.000000"
 preserveAspectRatio="xMidYMid meet">
<rect width="1024" height="1024" fill="#000000"/>
<g transform="translate(0.000000,1024.000000) scale(0.100000,-0.100000)"
fill="#D4A854" stroke="none">
<path d="M5051 8222 c-62 -33 -86 -107 -57 -176 55 -133 256 -95 256 48 0 80
-61 146 -135 146 -17 0 -46 -8 -64 -18z M4828 8138 c-509 -47 -1036 -259
-1457 -584 -120 -93 -361 -325 -361 -348 0 -8 6 -19 13 -25 11 -8 43 18 148
122 358 352 809 600 1304 717 125 30 266 55 372 66 62 6 82 21 66 48 -6 8 -30
9 -85 4z M5310 8127 c0 -30 8 -33 110 -42 176 -15 421 -69 640 -141 136 -45
477 -214 608 -302 144 -96 306 -227 444 -360 94 -91 121 -112 138 -107 11 3
20 11 20 17 0 16 -257 268 -348 340 -209 165 -459 313 -687 405 -279 113 -554
181 -852 209 l-73 7 0 -26z M4835 7994 c-187 -43 -253 -60 -375 -96 -293 -88
-667 -260 -888 -409 -202 -137 -483 -373 -469 -396 4 -7 37 4 89 29 75 36 370
172 493 228 113 51 627 312 650 330 8 7 367 195 548 288 79 41 61 51 -48 26z
m-79 -53 c-3 -5 -106 -62 -228 -127 -123 -65 -259 -140 -303 -167 -106 -65
-308 -163 -779 -378 -131 -60 -241 -108 -243 -106 -2 3 43 41 99 86 57 45 119
95 139 111 21 16 102 73 180 126 266 179 623 334 973 424 170 43 169 43 162
31z M5302 8001 c3 -10 62 -42 388 -208 124 -64 338 -173 475 -243 138 -71 293
-147 345 -170 104 -46 462 -211 578 -267 44 -21 77 -32 83 -26 7 7 -134 132
-301 265 -226 180 -592 379 -895 488 -138 50 -347 107 -505 139 -167 34 -173
35 -168 22z m263 -70 c371 -71 778 -243 1105 -469 186 -128 441 -340 353 -293
-70 36 -530 251 -539 251 -10 0 -363 175 -444 221 -47 26 -202 106 -345 178
-143 72 -253 131 -245 131 8 0 60 -9 115 -19z M5110 7831 c0 -38 -4 -81 -10
-95 -9 -24 -14 -26 -69 -26 -153 0 -454 -58 -666 -128 -337 -111 -698 -352
-960 -640 -94 -103 -99 -107 -148 -114 -48 -6 -53 -4 -104 34 -30 22 -58 37
-61 33 -7 -7 76 -84 90 -85 4 0 5 -20 2 -44 -4 -25 -2 -52 5 -64 10 -18 5 -31
-33 -89 -176 -273 -336 -761 -336 -1025 l0 -67 -36 -17 c-22 -10 -42 -31 -52
-51 l-16 -34 -101 3 -100 3 2 105 c5 224 84 586 181 831 47 117 112 253 118
246 3 -3 1 -29 -5 -59 -9 -48 -34 -240 -61 -483 -15 -136 -41 -537 -35 -543 3
-3 7 -3 9 -1 2 2 12 94 21 204 9 110 18 207 20 215 2 8 9 67 15 130 17 193 81
612 105 694 8 27 13 51 11 54 -10 10 -27 -13 -62 -86 -20 -42 -56 -118 -80
-168 -104 -219 -191 -513 -236 -805 -31 -194 -33 -580 -5 -764 48 -309 126
-589 234 -835 30 -69 60 -129 65 -135 13 -12 8 66 -26 450 -14 160 -32 409
-41 554 -18 302 -39 394 -30 131 10 -278 24 -537 40 -715 9 -93 17 -190 19
-213 5 -58 -4 -46 -57 79 -109 256 -192 636 -204 931 l-6 148 109 0 109 0 17
-30 c9 -16 28 -32 42 -36 24 -6 26 -10 26 -68 0 -88 36 -318 70 -449 51 -198
116 -360 225 -556 47 -86 53 -101 50 -146 -2 -40 -8 -53 -27 -65 -52 -33 -128
-92 -128 -101 0 -18 21 -9 95 41 73 47 77 49 121 41 25 -5 49 -13 53 -17 4 -5
33 -41 63 -79 126 -161 364 -375 537 -482 338 -211 697 -337 1041 -364 74 -6
149 -13 167 -15 l32 -5 3 -111 c2 -78 7 -113 16 -116 9 -3 12 24 12 111 0 130
-6 122 95 126 248 9 543 75 775 173 365 155 628 349 903 668 50 58 98 105 107
105 8 0 25 4 36 8 17 6 40 -4 100 -42 116 -74 116 -50 0 33 -59 42 -62 45 -61
87 0 30 10 61 31 99 200 353 294 652 311 990 l6 126 39 16 c23 10 42 26 45 38
5 18 13 20 109 20 86 0 106 -3 111 -16 9 -25 -16 -336 -38 -464 -34 -200 -130
-523 -197 -670 l-31 -65 0 45 c0 25 4 79 9 120 13 97 38 517 46 780 11 342
-11 221 -35 -195 -12 -209 -28 -450 -36 -535 -23 -266 -28 -360 -18 -360 27 0
174 396 233 629 49 193 90 482 90 637 0 48 5 85 12 92 9 9 9 17 0 34 -6 13
-14 61 -17 108 -25 344 -98 653 -237 1004 -41 105 -136 286 -150 286 -11 0
-10 -23 2 -55 10 -27 18 -73 45 -275 32 -244 55 -455 76 -705 11 -143 23 -262
25 -264 9 -10 3 238 -11 414 -14 194 -46 486 -66 608 -6 38 -9 71 -6 74 12 11
114 -238 170 -412 51 -159 93 -339 112 -485 11 -88 23 -273 18 -287 -4 -10
-31 -13 -109 -13 -98 0 -104 1 -104 20 0 26 -43 70 -68 70 -17 0 -20 11 -26
101 -13 185 -58 391 -126 574 -50 133 -164 370 -214 444 -25 37 -33 57 -26 65
12 15 16 64 7 92 -6 17 3 28 58 65 40 27 61 47 55 53 -9 9 -73 -27 -116 -66
-17 -15 -26 -17 -47 -9 -15 6 -40 8 -55 5 -25 -5 -33 0 -69 48 -100 131 -286
304 -454 420 -352 243 -763 384 -1181 405 -135 7 -128 0 -128 121 0 57 -3 72
-15 72 -12 0 -15 -14 -15 -69z m-19 -161 c15 -9 19 -22 19 -70 0 -46 3 -60 15
-60 11 0 15 16 17 68 l3 67 43 3 c58 4 302 -24 425 -49 466 -94 931 -375 1260
-761 48 -56 48 -57 36 -96 -8 -29 -8 -44 0 -61 19 -34 57 -54 94 -48 32 5 34
3 79 -76 117 -208 164 -311 224 -492 47 -144 61 -203 83 -360 29 -195 28 -216
-9 -237 -64 -37 -65 -124 -2 -163 l33 -20 -5 -115 c-9 -198 -61 -435 -142
-643 -31 -83 -172 -365 -195 -393 -5 -6 -28 -14 -51 -17 -32 -4 -48 -1 -69 14
-15 10 -32 19 -38 19 -22 0 -10 -18 25 -39 19 -12 33 -25 30 -30 -4 -5 -2 -21
3 -34 12 -32 -9 -65 -129 -202 -139 -159 -339 -330 -502 -428 -350 -212 -696
-321 -1082 -343 l-116 -7 0 206 c0 177 -2 207 -15 207 -13 0 -15 -29 -15 -200
0 -177 -2 -201 -16 -207 -20 -8 -282 13 -356 28 -280 55 -488 132 -743 274
-225 125 -476 340 -652 556 -51 64 -53 68 -47 113 5 37 13 50 35 63 29 17 39
43 18 43 -6 0 -23 -9 -38 -19 -21 -15 -37 -18 -69 -14 -40 5 -43 9 -97 99 -31
51 -72 128 -91 171 -19 43 -39 87 -44 98 -35 77 -104 305 -125 415 -16 86 -44
313 -45 361 0 20 7 30 30 39 31 13 60 54 60 85 0 37 -38 80 -87 100 -6 2 29
249 48 345 45 227 169 539 291 734 40 63 46 69 81 71 68 4 108 68 77 126 -9
16 4 35 93 131 165 179 288 283 477 401 313 196 615 301 981 341 159 18 176
18 200 6z M4993 7356 c-204 -96 -389 -229 -529 -378 l-61 -65 -88 -7 c-115 -8
-267 -39 -380 -77 -85 -29 -334 -150 -382 -187 -20 -15 -25 -34 -39 -152 -17
-148 -14 -265 12 -458 l15 -114 -68 -76 c-137 -153 -219 -270 -284 -405 -21
-43 -22 -51 -10 -85 29 -81 101 -222 164 -320 58 -90 67 -109 67 -150 0 -56
34 -264 56 -342 51 -184 186 -500 221 -518 43 -23 267 -93 355 -112 199 -41
471 -46 633 -10 35 8 46 5 85 -17 72 -43 230 -119 298 -143 l62 -23 68 23 c37
12 131 54 209 92 l141 71 79 -12 c302 -42 556 -13 857 97 l98 37 33 65 c59
117 125 280 159 394 34 110 76 339 76 409 0 27 13 55 53 114 53 79 155 277
177 345 10 34 9 44 -13 90 -56 123 -167 282 -282 403 l-67 70 17 120 c27 201
16 569 -18 601 -15 14 -91 56 -212 117 -161 81 -369 138 -555 153 l-85 7 -75
72 c-116 111 -205 182 -328 262 -113 74 -293 163 -328 163 -11 0 -70 -25 -131
-54z m214 -56 c162 -76 334 -191 451 -304 76 -73 78 -86 16 -86 -99 0 -378
-70 -493 -124 -52 -24 -56 -24 -90 -9 -20 8 -94 35 -166 58 -112 37 -188 54
-385 82 l-35 5 70 65 c118 109 251 202 399 279 77 41 143 74 145 74 1 0 41
-18 88 -40z m-527 -475 c141 -23 351 -90 349 -112 0 -4 -32 -28 -70 -53 -39
-25 -113 -82 -164 -127 -84 -75 -98 -83 -134 -83 -83 0 -276 -32 -362 -59 -49
-16 -91 -25 -94 -21 -6 10 35 130 77 221 40 87 92 170 138 223 l33 37 71 -6
c39 -4 109 -13 156 -20z m1184 -64 c30 -43 73 -114 94 -158 43 -89 89 -220 80
-228 -3 -3 -50 6 -105 20 -128 33 -262 55 -338 55 -49 0 -65 4 -86 24 -101 94
-163 145 -221 183 -37 24 -70 48 -73 53 -20 32 297 116 485 129 52 4 98 5 102
4 4 -2 32 -39 62 -82z m-1534 68 c0 -6 -8 -23 -19 -37 -62 -89 -130 -240 -171
-377 -25 -87 -28 -91 -71 -114 -181 -96 -259 -148 -389 -260 l-74 -64 -8 29
c-21 76 -31 300 -20 431 7 73 15 138 17 146 9 21 261 143 377 182 59 19 155
44 215 54 130 23 143 24 143 10z m1760 -15 c111 -20 241 -64 365 -125 135 -65
187 -95 198 -115 27 -48 15 -549 -13 -578 -6 -5 -28 7 -56 30 -104 88 -245
187 -339 239 -55 30 -103 56 -108 57 -4 2 -18 45 -32 97 -29 106 -85 232 -151
337 -24 40 -44 75 -44 78 0 8 55 2 180 -20z m-834 -218 c55 -37 173 -140 168
-147 -2 -4 -31 -10 -66 -13 -34 -4 -96 -18 -137 -32 -94 -29 -92 -29 -195 0
-46 14 -111 28 -145 32 -34 3 -61 10 -61 13 0 21 142 136 234 189 l68 40 50
-29 c28 -16 66 -40 84 -53z m-286 -242 c38 -8 72 -19 74 -23 3 -4 -31 -33 -75
-65 -153 -111 -271 -285 -318 -469 -11 -43 -21 -80 -23 -82 -2 -2 -41 31 -87
74 l-83 78 17 59 c31 108 153 319 239 413 l41 44 72 -7 c40 -3 104 -13 143
-22z m583 -42 c100 -124 209 -324 223 -408 6 -40 6 -41 -77 -117 -93 -86 -87
-86 -109 13 -17 76 -65 182 -117 262 -45 68 -167 190 -235 236 -21 13 -38 26
-38 29 0 16 164 51 246 52 l52 1 55 -68z m-967 -20 c-62 -88 -142 -238 -175
-325 -11 -32 -35 -77 -52 -100 -16 -23 -55 -82 -86 -130 -31 -49 -59 -85 -63
-80 -18 19 -42 134 -52 246 -9 114 -1 283 18 353 7 25 68 50 199 83 107 26
119 28 198 30 l68 1 -55 -78z m1217 63 c89 -19 230 -63 251 -78 32 -24 47
-273 26 -437 -12 -88 -37 -180 -49 -180 -5 0 -35 42 -68 92 -32 51 -69 106
-84 123 -14 16 -33 53 -43 80 -35 96 -117 251 -176 333 l-59 82 67 0 c37 0 98
-7 135 -15z m-581 -139 c113 -85 179 -162 233 -271 46 -91 85 -218 72 -231
-17 -17 -109 52 -251 188 l-153 147 -151 -144 c-91 -88 -170 -154 -201 -169
-28 -14 -53 -26 -57 -26 -9 0 5 66 28 135 43 122 122 243 207 314 65 54 162
121 176 121 7 0 50 -29 97 -64z m-1125 -8 c-13 -57 -18 -223 -8 -319 6 -59 22
-154 37 -213 14 -58 24 -116 21 -129 -4 -12 -30 -61 -58 -107 -28 -47 -68
-113 -87 -147 -20 -35 -39 -63 -42 -63 -15 0 -167 244 -220 354 -74 151 -123
293 -109 317 11 21 151 138 242 203 62 44 205 126 221 126 4 0 6 -10 3 -22z
m2152 -27 c113 -68 226 -151 306 -224 l67 -62 -30 -90 c-47 -139 -98 -254
-158 -356 -58 -98 -144 -223 -149 -217 -2 2 -47 75 -100 163 l-96 160 26 107
c38 157 48 265 42 426 -3 78 -2 142 2 142 4 0 45 -22 90 -49z m-1030 -339 c50
-49 91 -93 91 -98 0 -6 -43 -52 -96 -104 l-95 -94 -97 97 -97 97 95 95 c52 52
98 95 101 95 4 0 48 -40 98 -88z m1610 -172 c32 -41 84 -119 115 -173 68 -116
68 -116 0 -251 -143 -285 -293 -453 -529 -596 -81 -49 -238 -130 -243 -126 -1
2 13 36 32 77 64 138 88 238 93 394 l6 140 47 60 c113 145 245 385 296 538 15
45 29 86 32 90 7 13 86 -67 151 -153z m-3251 123 c5 -16 18 -50 27 -78 48
-137 219 -440 305 -539 25 -29 27 -39 33 -156 8 -161 51 -331 113 -452 9 -16
13 -32 11 -35 -9 -8 -184 86 -288 155 -218 146 -349 301 -479 567 l-62 127 28
51 c78 146 99 177 201 298 41 49 80 89 88 89 7 0 17 -12 23 -27z m1327 -475
c55 -56 188 -188 295 -291 107 -104 196 -193 198 -197 5 -12 -82 -55 -152 -75
-294 -85 -706 185 -925 606 -27 52 -56 115 -66 141 l-17 47 48 78 c26 43 63
102 82 131 l33 53 202 -195 c111 -107 247 -241 302 -298z m1020 367 c41 -66
75 -128 75 -139 0 -28 -73 -187 -129 -279 -62 -102 -163 -225 -244 -296 -73
-63 -132 -104 -146 -99 -16 5 -291 278 -291 288 0 12 643 650 653 647 4 -1 41
-56 82 -122z m-1012 -52 c98 -93 156 -155 157 -163 0 -3 -22 -27 -49 -54 l-49
-48 -136 132 c-75 73 -136 138 -136 144 0 14 91 75 113 76 5 0 50 -39 100 -87z
m555 68 c20 -10 46 -29 57 -41 l20 -22 -139 -136 -139 -137 -49 55 -48 54 122
123 c68 68 126 123 131 123 4 0 24 -9 45 -19z m-1218 -353 c130 -263 290 -432
586 -615 18 -11 17 -12 -7 -12 -41 -1 -165 34 -269 76 -174 71 -327 163 -454
276 -90 80 -91 81 -55 158 31 65 130 228 139 228 3 0 30 -50 60 -111z m1882
-1 c37 -61 75 -130 83 -151 l17 -39 -67 -64 c-106 -101 -273 -207 -444 -283
-96 -42 -262 -90 -310 -90 -25 0 -25 1 9 21 141 85 235 158 321 246 117 121
193 228 260 367 29 58 55 106 58 106 3 0 36 -51 73 -113z m-953 36 l52 -48
-55 -54 -54 -54 -56 48 c-31 26 -56 51 -56 55 0 9 101 100 110 100 4 0 30 -21
59 -47z m-1104 -376 c126 -110 319 -223 487 -286 124 -47 306 -91 375 -91 52
0 93 -9 93 -19 -1 -10 -177 -91 -276 -127 -152 -55 -306 -65 -469 -33 -94 19
-98 22 -153 132 -61 122 -98 236 -112 348 -12 100 -12 119 -2 119 4 0 30 -20
57 -43z m2149 -94 c-15 -107 -54 -223 -109 -334 -58 -114 -68 -120 -238 -140
-178 -21 -336 13 -562 122 l-110 52 60 9 c275 38 468 100 670 218 90 52 252
167 276 196 25 31 30 -11 13 -123z m-2671 -139 c147 -133 422 -301 572 -348
11 -4 36 -30 55 -58 62 -92 274 -291 392 -368 21 -14 38 -28 38 -31 0 -10 -50
-18 -162 -25 -178 -11 -390 23 -618 100 -108 37 -120 43 -120 56 0 5 -25 64
-56 130 -75 165 -121 308 -150 463 -13 72 -24 132 -24 134 0 10 18 -3 73 -53z
m3202 -11 c-15 -149 -100 -410 -196 -607 -33 -68 -36 -70 -99 -96 -86 -35
-233 -76 -350 -97 -143 -25 -471 -22 -470 5 0 4 40 36 88 72 109 81 237 203
315 300 48 60 70 79 111 96 73 30 209 100 286 146 83 50 235 166 279 212 19
20 37 36 39 36 2 0 1 -30 -3 -67z m-1487 -258 c248 -119 387 -153 575 -140 54
3 104 8 112 12 29 10 14 -17 -42 -81 -153 -171 -442 -363 -724 -480 l-66 -28
-74 31 c-295 126 -574 315 -735 497 l-57 65 64 -8 c96 -12 281 -6 352 12 89
23 183 60 321 126 67 32 125 58 129 58 4 1 69 -28 145 -64z M2895 7153 c-62
-17 -109 -91 -98 -157 12 -72 97 -130 167 -112 40 10 85 55 97 96 29 98 -69
200 -166 173z M7274 7131 c-34 -21 -64 -75 -64 -116 0 -41 30 -95 64 -117 48
-30 128 -21 168 19 39 39 49 112 24 162 -34 66 -128 91 -192 52z M2728 6843
c-230 -349 -375 -759 -423 -1192 -21 -185 -16 -526 9 -686 24 -146 70 -331
122 -485 47 -142 216 -498 240 -507 8 -3 21 0 29 7 13 11 10 23 -29 94 -163
303 -268 628 -311 966 -21 162 -16 557 8 705 32 191 82 385 143 556 43 120
155 347 227 457 37 57 67 107 67 111 0 4 -8 16 -19 25 -18 16 -20 14 -63 -51z
M7483 6878 l-21 -21 64 -103 c311 -504 442 -1102 374 -1709 -34 -300 -133
-615 -290 -924 -51 -100 -66 -139 -58 -148 19 -24 34 -14 70 50 122 210 230
490 288 745 134 595 67 1199 -196 1759 -49 104 -137 263 -189 340 l-21 32 -21
-21z M2759 3947 c-118 -79 -67 -247 76 -247 77 0 125 51 125 132 0 109 -113
174 -201 115z M7353 3950 c-83 -50 -85 -186 -4 -232 69 -41 157 -22 194 41 35
60 6 165 -55 197 -38 20 -97 17 -135 -6z M3010 3741 c0 -17 86 -105 209 -213
358 -314 680 -505 1084 -643 140 -47 402 -113 517 -130 52 -7 101 -15 109 -17
7 -1 15 2 17 7 5 15 -26 33 -546 324 -223 125 -646 340 -885 449 -60 28 -193
91 -295 141 -180 88 -210 100 -210 82z m365 -186 c153 -75 328 -159 389 -187
149 -68 413 -199 462 -231 23 -14 121 -70 220 -125 98 -55 214 -120 257 -146
43 -25 80 -46 82 -46 9 0 75 -43 72 -46 -7 -7 -221 36 -357 72 -420 110 -795
307 -1150 604 -78 65 -265 240 -257 240 2 0 129 -61 282 -135z M7185 3730
c-22 -10 -132 -63 -245 -116 -369 -175 -942 -459 -1075 -534 -71 -40 -155 -86
-185 -103 -293 -160 -400 -224 -400 -238 0 -5 1 -9 3 -9 29 1 326 57 420 80
527 129 1023 412 1470 839 42 41 76 79 74 85 -6 17 -21 16 -62 -4z m-46 -66
c-54 -60 -251 -231 -360 -314 -349 -266 -754 -454 -1164 -539 -221 -46 -240
-50 -244 -45 -6 6 -20 -3 224 132 121 66 290 160 375 209 86 49 288 151 450
228 161 77 391 188 509 247 119 59 220 107 225 107 5 1 -1 -11 -15 -25z M2906
3655 c-18 -14 -18 -15 9 -51 52 -67 279 -296 375 -376 109 -91 345 -252 470
-321 211 -114 473 -215 712 -272 116 -28 350 -65 411 -65 33 0 37 3 37 24 0
22 -5 25 -57 31 -157 18 -280 40 -402 71 -594 152 -1050 435 -1489 927 -23 26
-43 47 -45 47 -1 0 -11 -7 -21 -15z M7288 3621 c-54 -66 -210 -225 -303 -306
-347 -305 -765 -519 -1230 -630 -105 -25 -357 -65 -412 -65 -30 0 -33 -3 -33
-30 0 -16 4 -30 8 -30 4 0 64 7 132 15 512 62 991 252 1395 554 121 90 272
220 341 292 78 83 187 209 183 212 -2 1 -13 10 -24 19 -19 15 -22 14 -57 -31z
M5065 2756 c-120 -53 -99 -238 31 -262 81 -15 154 48 154 135 0 104 -93 168
-185 127z"/>
</g>
</svg>
